<svg xmlns="http://www.w3.org/2000/svg" xmlns:xlink="http://www.w3.org/1999/xlink" version="1.1" id="Layer_1" x="0px" y="0px" viewBox="0 0 3.576 1.83595" enable-background="new 0 0 3.576 1.83595" xml:space="preserve">
<path fill="#4D4D4D" d="M1.69296 1.12305c-0.0147-0.0107-0.0303-0.0166-0.0488-0.0166h-1.1465c-0.0469 0-0.083 0.0381-0.083 0.083 c0 0.045 0.036 0.082 0.083 0.082h1.125l0.2734 0.15819c0.04 0.024 0.09 0.009 0.1123-0.03119 c0.02251-0.0391 0.0088-0.0879-0.0303-0.1113L1.69296 1.12305L1.69296 1.12305z M3.54446 1.24215L3.54446 1.242 c-0.0527-0.1308-0.1728-0.2441-0.3711-0.289c-0.0742-0.0156-0.125-0.0283-0.18549-0.041L2.73396 0.848 c-0.07809-0.01949-0.1719-0.06349-0.2715-0.11909c-0.1279-0.0742-0.2607-0.166-0.3848-0.2598 c-0.08879-0.0684-0.17379-0.1387-0.248-0.2012c-0.1152-0.0986-0.2051-0.1816-0.25-0.2207 c-0.0684-0.0644-0.1611-0.0586-0.2402-0.0058c-0.0254 0.01559-0.0489 0.0361-0.0703 0.0595l-0.0049 0.005 c-0.0205 0.0244-0.0401 0.0547-0.0567 0.085c-0.0429 0.0889-0.05369 0.193 0.01 0.2891l-0.0127 0.007 c-0.0742 0.0361-0.1826 0.0605-0.2852 0.0605v0.001c-0.1191 0-0.18159-0.0635-0.2519-0.1357l-0.0059-0.0078 c-0.04679-0.0489-0.0957-0.1016-0.166-0.1543l-0.00679-0.0059c-0.042-0.0293-0.083-0.0527-0.125-0.06451L0.35696 0.177 c-0.03609-0.0088-0.0703-0.0088-0.1045 0c-0.04 0.0108-0.0751 0.0342-0.1005 0.0684c-0.0166 0.0224-0.0274 0.0478-0.0362 0.077 v0.002c-0.0312 0.126-0.0488 0.2597-0.0654 0.3916v0.0029l-0.0156 0.1152l-0.002 0.006 c-0.0136 0.0957-0.0234 0.17379-0.0273 0.2432v0.0009c-0.0069 0.0743-0.0069 0.14069-0.002 0.207 c0.0391 0.545 0.24 0.545 0.58 0.5449h0.002c0.0869 0 0.2168-0.0029 0.3271-0.0049c0.0596-0.001 0.1094-0.001 0.1748-0.001 h2.06541c0.16119 0 0.28319-0.08 0.35449-0.19141c0.0371-0.05759 0.0606-0.123 0.0664-0.19139 C3.58066 1.379 3.572 1.309 3.544 1.24215L3.54446 1.24215z M3.27696 1.49025L3.27696 1.49 c-0.0245 0.0371-0.0674 0.0625-0.12409 0.0625H1.08746c-0.0205 0-0.0937 0.00189-0.1807 0.004 c-0.08489 0.002-0.1894 0.00391-0.3212 0.00391h-0.002c-0.17769 0-0.2861 0-0.3076-0.29c-0.0029-0.0518-0.002-0.1045 0.00191-0.166 v-0.003c0.00689-0.0654 0.01469-0.1377 0.02639-0.2256l0.002-0.0039l0.01461-0.1152v-0.0068 c0.01269-0.086 0.02339-0.1739 0.04-0.2579c0.03519 0.031 0.068 0.066 0.099 0.0997l0.0078 0.008 c0.1123 0.119 0.214 0.223 0.452 0.22261l0 0c0.1426 0 0.2959-0.0361 0.4043-0.0898 c0.0557-0.0264 0.1026-0.0606 0.1368-0.0977c0.0507-0.0586 0.0722-0.123 0.0527-0.1972h0.001 c-0.0088-0.0372-0.02839-0.0733-0.0616-0.1036c-0.00479-0.0058-0.0029-0.0156 0.002-0.0234v-0.001l0 0l0.002-0.00291 c0.0507 0.045 0.117 0.104 0.196 0.16991c0.04889 0.041 0.102 0.086 0.159 0.1309l-0.1621 0.189 c-0.0293 0.0342-0.0273 0.086 0.007 0.1153c0.0362 0.029 0.087 0.027 0.1153-0.0088l0.1699-0.1944 c0.04691 0.033 0.094 0.069 0.143 0.1016l-0.1553 0.1807c-0.0293 0.0341-0.02539 0.087 0.007 0.116 c0.0362 0.03 0.087 0.026 0.1172-0.00781l0.169-0.19629c0.0351 0.022 0.069 0.043 0.103 0.062 c0.11911 0.068 0.236 0.122 0.342 0.1484c0.0859 0.021 0.156 0.039 0.255 0.0625c0.0683 0.017 0.121 0.029 0.191 0.044 c0.09859 0.023 0.155 0.071 0.177 0.125c0.0088 0.024 0.013 0.05 0.01 0.074 C3.29836 1.443 3.291 1.469 3.277 1.49025L3.27696 1.49025z"/>
</svg>
