<svg xmlns="http://www.w3.org/2000/svg" xmlns:xlink="http://www.w3.org/1999/xlink" version="1.1" id="Layer_1" x="0px" y="0px" viewBox="0 0 3.471 3.412" enable-background="new 0 0 3.471 3.412" xml:space="preserve">
<path class="path-ico1" fill="#4D4D4D" d="M3.215 3.074c0 0.09-0.031 0.174-0.083 0.234C3.077 3.372 3 3.412 2.915 3.412 c-0.085 0-0.162-0.04-0.218-0.103C2.645 3.248 2.614 3.164 2.614 3.074V3.064l0.064-1.027V2.029V2.027 c0-0.07 0.025-0.135 0.064-0.182c0.013-0.012 0.022-0.023 0.036-0.031V1.285c-0.103-0.03-0.191-0.093-0.26-0.176 C2.421 0.99 2.36 0.83 2.36 0.652c0-0.176 0.06-0.338 0.158-0.455C2.618 0.076 2.759 0 2.915 0C3.07 0 3.211 0.076 3.313 0.197 l0.004 0.005c0.096 0.117 0.153 0.276 0.153 0.45c0 0.178-0.059 0.338-0.157 0.455v0.002c-0.07 0.083-0.16 0.145-0.262 0.175v0.53 c0.013 0.008 0.025 0.02 0.035 0.031c0.041 0.047 0.064 0.111 0.064 0.182v0.008l0.064 1.034V3.074L3.215 3.074z M1.713 1.186 L1.713 1.186v0.629c0.013 0.008 0.024 0.02 0.034 0.031c0.041 0.047 0.066 0.111 0.066 0.182L1.812 2.034l0.064 1.035l0.001 0.005 c0 0.09-0.032 0.174-0.083 0.234C1.738 3.372 1.66 3.412 1.577 3.412c-0.086 0-0.164-0.04-0.218-0.103 C1.307 3.248 1.275 3.164 1.275 3.074l0.002-0.011L1.34 2.036V2.028V2.027c0-0.07 0.024-0.135 0.064-0.182 c0.011-0.012 0.021-0.023 0.034-0.031V1.186H1.386c-0.063 0-0.122-0.025-0.164-0.068c-0.041-0.042-0.068-0.1-0.068-0.165V0.199 c0-0.045 0.036-0.082 0.083-0.082c0.046 0 0.083 0.037 0.083 0.082v0.753c0 0.019 0.008 0.036 0.018 0.048 C1.349 1.01 1.363 1.02 1.38 1.02v-0.82c0-0.045 0.037-0.082 0.084-0.082c0.045 0 0.081 0.037 0.081 0.082v0.821h0.027h0.005h0.004 h0.025V0.199c0-0.045 0.037-0.082 0.083-0.082c0.045 0 0.083 0.037 0.083 0.082v0.82c0.016 0 0.03-0.01 0.041-0.018V1 c0.012-0.012 0.021-0.029 0.021-0.048V0.199c0-0.045 0.035-0.082 0.081-0.082c0.046 0 0.083 0.037 0.083 0.082v0.753 c0 0.063-0.026 0.122-0.068 0.164v0.001C1.888 1.16 1.828 1.186 1.767 1.186H1.713L1.713 1.186z M0.64 1.863L0.64 1.863 C0.667 1.9 0.684 1.949 0.684 2.002v1.174c0 0.064-0.026 0.123-0.069 0.166L0.613 3.343L0.611 3.345 C0.569 3.387 0.51 3.412 0.446 3.412H0.238c-0.065 0-0.125-0.025-0.168-0.069V3.342L0.068 3.34C0.025 3.297 0 3.238 0 3.176V3.152 V3.148c0-0.82 0-1.641 0-2.461c0-0.215 0.271-0.648 0.271-0.649C0.294 0 0.346-0.012 0.384 0.013 c0.009 0.006 0.016 0.013 0.023 0.022c0 0 0.332 0.436 0.332 0.795v0.916c0 0.029-0.017 0.056-0.04 0.07L0.64 1.863L0.64 1.863z M0.165 1.764L0.165 1.764c0.11 0 0.223 0 0.332 0l0.076-0.059V0.83c0-0.206-0.139-0.456-0.229-0.596 c-0.072 0.13-0.18 0.34-0.18 0.453V1.764L0.165 1.764z M3.186 0.302L3.186 0.302c-0.07-0.083-0.166-0.138-0.27-0.138 c-0.104 0-0.201 0.055-0.271 0.138c-0.072 0.089-0.118 0.213-0.118 0.35s0.046 0.262 0.118 0.351C2.714 1.088 2.811 1.14 2.915 1.14 c0.105 0 0.2-0.052 0.27-0.137C3.259 0.914 3.305 0.79 3.305 0.652c0-0.137-0.044-0.258-0.115-0.346L3.186 0.302L3.186 0.302z M1.668 3.201L1.668 3.201C1.694 3.17 1.711 3.125 1.711 3.074L1.647 2.041V2.036V2.032V2.027c0-0.029-0.011-0.057-0.025-0.074 C1.61 1.939 1.594 1.93 1.577 1.93l0 0H1.574c-0.017 0-0.033 0.009-0.044 0.023C1.515 1.971 1.504 1.998 1.504 2.027v0.004v0.012 L1.441 3.074l0 0c0 0.051 0.017 0.096 0.043 0.127C1.509 3.23 1.541 3.247 1.577 3.247C1.611 3.247 1.644 3.23 1.668 3.201 L1.668 3.201z M1.504 2.031L1.504 2.031v0.005V2.031L1.504 2.031z M3.007 3.201L3.007 3.201C3.034 3.17 3.051 3.125 3.051 3.074 L2.987 2.041V2.035V2.03V2.027c0-0.029-0.011-0.057-0.025-0.074C2.949 1.939 2.934 1.93 2.917 1.93H2.915H2.913 c-0.016 0-0.032 0.009-0.043 0.023C2.853 1.971 2.845 1.998 2.845 2.027H2.843l0.002 0.004c0 0.004 0 0.008 0 0.012L2.778 3.074l0 0 c0 0.051 0.017 0.096 0.045 0.127C2.847 3.23 2.879 3.247 2.915 3.247C2.949 3.247 2.983 3.23 3.007 3.201L3.007 3.201z M0.409 2.038L0.409 2.038H0.275v1.099h0.134V2.038L0.409 2.038z"/>
</svg>
