<svg xmlns="http://www.w3.org/2000/svg" xmlns:xlink="http://www.w3.org/1999/xlink" version="1.1" id="Layer_1" x="0px" y="0px" viewBox="0 0 3.16109 3.5205" enable-background="new 0 0 3.16109 3.5205" xml:space="preserve">
<path fill="#4D4D4D" d="M3.15139 1.3359l-0.209-0.3594c-0.0215-0.039-0.0723-0.0527-0.11139-0.0302L2.65529 1.047 C2.61819 1.068 2.603 1.115 2.623 1.1543l-0.06831 0.041c-0.0322-0.043-0.0703-0.083-0.1065-0.1211 C2.248 0.875 1.992 0.734 1.704 0.6796V0.56339h0.0303c0.0449 0 0.083-0.03709 0.083-0.083V0.081 c0-0.0459-0.0381-0.081-0.083-0.081h-0.6016c-0.0459 0-0.081 0.0351-0.081 0.081v0.39939c0 0.046 0.035 0.083 0.081 0.083h0.0303 V0.6796C0.875 0.734 0.618 0.875 0.42 1.0742C0.16109 1.334 0 1.691 0 2.0869c0 0.397 0.161 0.755 0.42 1.014 c0.2598 0.26 0.618 0.42 1.014 0.42s0.7539-0.1602 1.0146-0.42c0.25781-0.2587 0.419-0.6162 0.419-1.0136 c0-0.1846-0.03419-0.3623-0.0996-0.5244l0.0683-0.03911c0.0235 0.035 0.072 0.048 0.11 0.02541l0.0039-0.002l0.1699-0.0976 C3.15919 1.426 3.172 1.375 3.151 1.3359L3.15139 1.3359z M1.21579 0.164L1.21579 0.164h0.4356v0.23439h-0.4356V0.164 L1.21579 0.164z M1.54 0.56339L1.54 0.56339V0.6572c-0.03611-0.001-0.07031-0.0029-0.10641-0.0029s-0.0713 0.0019-0.1045 0.003 V0.56339H1.54L1.54 0.56339z M2.25189 2.9062L2.25189 2.9062c-0.20889 0.2109-0.497 0.3389-0.8183 0.339 c-0.3193 0-0.6094-0.128-0.8193-0.3389c-0.21-0.209-0.3379-0.498-0.3379-0.8193c0-0.3194 0.1279-0.6094 0.3379-0.8184 c0.2099-0.2099 0.5-0.3408 0.8193-0.3408c0.3213 0 0.609 0.131 0.818 0.3408c0.21 0.209 0.341 0.499 0.341 0.818 C2.59279 2.408 2.462 2.697 2.252 2.9062L2.25189 2.9062z M2.70019 1.4121L2.70019 1.4121l-0.0479-0.084L2.706 1.298 l0.04889 0.083L2.70019 1.4121L2.70019 1.4121z M2.93459 1.3652L2.93459 1.3652l-0.125-0.21681l0.0322-0.01859l0.126 0.217 L2.93459 1.3652L2.93459 1.3652z M1.51459 1.1963L1.51459 1.1963L1.51459 1.1963v-0.001c-0.0175-0.086-0.1445-0.08891-0.1601 0 l-0.1533 0.7314C1.125 2.037 1.138 2.184 1.229 2.2812l0.0039 0.0039c0.1103 0.111 0.289 0.111 0.4 0 C1.72949 2.189 1.742 2.039 1.666 1.9277L1.51459 1.1963L1.51459 1.1963z M1.43359 1.6171L1.43359 1.6171l0.04 0.191 c-0.0254-0.003-0.0527-0.003-0.0781 0L1.43359 1.6171L1.43359 1.6171z M1.51659 2.1699L1.51659 2.1699L1.51659 2.17 c-0.0449 0.0449-0.1191 0.0449-0.166 0l-0.002-0.0029c-0.0429-0.0459-0.0429-0.1182 0.002-0.1631l0 0 c0.0469-0.045 0.1211-0.045 0.166 0l0.0039 0.0039l0.0049 0.0058v0.002C1.56349 2.061 1.56 2.129 1.517 2.17 L1.51659 2.1699z"/>
</svg>
